{
	"asset":{
		"generator":"Khronos glTF Blender I/O v4.5.51",
		"version":"2.0"
	},
	"extensionsUsed":[
		"KHR_materials_specular"
	],
	"scene":0,
	"scenes":[
		{
			"name":"Scene",
			"nodes":[
				13
			]
		}
	],
	"nodes":[
		{
			"name":"kart_body",
			"rotation":[
				-2.0021728585229315e-15,
				-1.7763568394002505e-15,
				1.1660629512058529e-23,
				1
			],
			"translation":[
				6.290041119031086e-23,
				-3.340259552001953,
				1.4210854715202004e-14
			]
		},
		{
			"name":"mario",
			"rotation":[
				-2.9582283945787943e-31,
				1.5754491045072427e-09,
				3.944304526105059e-31,
				1
			],
			"translation":[
				1.499439328256358e-08,
				-1.5332298278808594,
				-0.43806692957878113
			]
		},
		{
			"name":"mario_head",
			"rotation":[
				3.737943998771698e-08,
				-1.7114272665708086e-08,
				4.742721171947263e-16,
				1
			],
			"translation":[
				5.0606214330173316e-08,
				2.628399610519409,
				-1.4784798622131348
			]
		},
		{
			"name":"tire_front",
			"rotation":[
				0,
				-1.7114272665708086e-08,
				0,
				1
			],
			"translation":[
				-0.00774733629077673,
				-2.677959442138672,
				4.8713788986206055
			]
		},
		{
			"name":"tire_rear",
			"rotation":[
				0,
				-1.7114272665708086e-08,
				0,
				1
			],
			"translation":[
				-0.001633246778510511,
				-2.1695897579193115,
				-4.769158840179443
			]
		},
		{
			"children":[
				0,
				1,
				2,
				3,
				4
			],
			"name":"COMMON",
			"rotation":[
				-8.557136332854043e-09,
				1.7114272665708086e-08,
				-2.928983286277023e-16,
				1
			]
		},
		{
			"mesh":0,
			"name":"kart_body",
			"skin":0
		},
		{
			"mesh":1,
			"name":"kart_body__ALT",
			"skin":0
		},
		{
			"mesh":2,
			"name":"mario",
			"skin":0
		},
		{
			"mesh":3,
			"name":"mario_head__mat_mario_body",
			"skin":0
		},
		{
			"mesh":4,
			"name":"mario_head__mat_mario_eye",
			"skin":0
		},
		{
			"mesh":5,
			"name":"tire_front",
			"skin":0
		},
		{
			"mesh":6,
			"name":"tire_rear",
			"skin":0
		},
		{
			"children":[
				6,
				7,
				8,
				9,
				10,
				11,
				12,
				5
			],
			"name":"Armature"
		}
	],
	"materials":[
		{
			"extensions":{
				"KHR_materials_specular":{
					"specularTexture":{
						"index":0
					}
				}
			},
			"name":"mat_body",
			"pbrMetallicRoughness":{
				"baseColorTexture":{
					"index":1
				},
				"metallicFactor":0,
				"roughnessFactor":0.5
			}
		},
		{
			"alphaMode":"BLEND",
			"name":"mat_body__ALT",
			"pbrMetallicRoughness":{
				"baseColorTexture":{
					"index":2
				},
				"metallicFactor":0,
				"roughnessFactor":0.5
			}
		},
		{
			"extensions":{
				"KHR_materials_specular":{
					"specularTexture":{
						"index":3
					}
				}
			},
			"name":"mat_mario_body",
			"pbrMetallicRoughness":{
				"baseColorTexture":{
					"index":4
				},
				"metallicFactor":0,
				"roughnessFactor":0.5
			}
		},
		{
			"extensions":{
				"KHR_materials_specular":{
					"specularTexture":{
						"index":5
					}
				}
			},
			"name":"mat_mario_eye",
			"pbrMetallicRoughness":{
				"baseColorTexture":{
					"index":6
				},
				"metallicFactor":0,
				"roughnessFactor":0.5
			}
		},
		{
			"extensions":{
				"KHR_materials_specular":{
					"specularTexture":{
						"index":7
					}
				}
			},
			"name":"mat_tire",
			"normalTexture":{
				"index":8
			},
			"pbrMetallicRoughness":{
				"baseColorTexture":{
					"index":9
				},
				"metallicFactor":0,
				"roughnessFactor":0.5
			}
		}
	],
	"meshes":[
		{
			"name":"kart_body",
			"primitives":[
				{
					"attributes":{
						"POSITION":0,
						"NORMAL":1,
						"TEXCOORD_0":2,
						"JOINTS_0":3,
						"WEIGHTS_0":4
					},
					"indices":5,
					"material":0
				}
			]
		},
		{
			"name":"kart_body__ALT",
			"primitives":[
				{
					"attributes":{
						"POSITION":7,
						"NORMAL":8,
						"TEXCOORD_0":9,
						"JOINTS_0":10,
						"WEIGHTS_0":11
					},
					"indices":5,
					"material":1
				}
			]
		},
		{
			"name":"mario",
			"primitives":[
				{
					"attributes":{
						"POSITION":12,
						"NORMAL":13,
						"TEXCOORD_0":14,
						"JOINTS_0":15,
						"WEIGHTS_0":16
					},
					"indices":17,
					"material":2
				}
			]
		},
		{
			"name":"mario_head__mat_mario_body",
			"primitives":[
				{
					"attributes":{
						"POSITION":18,
						"NORMAL":19,
						"TEXCOORD_0":20,
						"JOINTS_0":21,
						"WEIGHTS_0":22
					},
					"indices":23,
					"material":2
				}
			]
		},
		{
			"name":"mario_head__mat_mario_eye",
			"primitives":[
				{
					"attributes":{
						"POSITION":24,
						"NORMAL":25,
						"TEXCOORD_0":26,
						"JOINTS_0":27,
						"WEIGHTS_0":28
					},
					"indices":29,
					"material":3
				}
			]
		},
		{
			"name":"tire_front",
			"primitives":[
				{
					"attributes":{
						"POSITION":30,
						"NORMAL":31,
						"TEXCOORD_0":32,
						"JOINTS_0":33,
						"WEIGHTS_0":34
					},
					"indices":35,
					"material":4
				}
			]
		},
		{
			"name":"tire_rear",
			"primitives":[
				{
					"attributes":{
						"POSITION":36,
						"NORMAL":37,
						"TEXCOORD_0":38,
						"JOINTS_0":39,
						"WEIGHTS_0":40
					},
					"indices":35,
					"material":4
				}
			]
		}
	],
	"textures":[
		{
			"sampler":0,
			"source":0
		},
		{
			"sampler":0,
			"source":1
		},
		{
			"sampler":1,
			"source":2
		},
		{
			"sampler":0,
			"source":3
		},
		{
			"sampler":0,
			"source":4
		},
		{
			"sampler":0,
			"source":5
		},
		{
			"sampler":0,
			"source":6
		},
		{
			"sampler":2,
			"source":7
		},
		{
			"sampler":2,
			"source":8
		},
		{
			"sampler":2,
			"source":9
		}
	],
	"images":[
		{
			"mimeType":"image/png",
			"name":"COMMON1_a.png",
			"uri":"COMMON1_a.png"
		},
		{
			"mimeType":"image/png",
			"name":"COMMON1.png",
			"uri":"COMMON1.png"
		},
		{
			"mimeType":"image/png",
			"name":"COMMON6.png",
			"uri":"COMMON6.png"
		},
		{
			"mimeType":"image/png",
			"name":"COMMON4_a.png",
			"uri":"COMMON4_a.png"
		},
		{
			"mimeType":"image/png",
			"name":"COMMON4.png",
			"uri":"COMMON4.png"
		},
		{
			"mimeType":"image/png",
			"name":"COMMON5_a.png",
			"uri":"COMMON5_a.png"
		},
		{
			"mimeType":"image/png",
			"name":"COMMON5.png",
			"uri":"COMMON5.png"
		},
		{
			"mimeType":"image/png",
			"name":"COMMON2_a.png",
			"uri":"COMMON2_a.png"
		},
		{
			"mimeType":"image/png",
			"name":"COMMON3.png",
			"uri":"COMMON3.png"
		},
		{
			"mimeType":"image/png",
			"name":"COMMON2.png",
			"uri":"COMMON2.png"
		}
	],
	"skins":[
		{
			"inverseBindMatrices":6,
			"joints":[
				5,
				0,
				1,
				2,
				3,
				4
			],
			"name":"Armature"
		}
	],
	"accessors":[
		{
			"bufferView":0,
			"componentType":5126,
			"count":489,
			"max":[
				7.172430038452148,
				2.952899932861328,
				11.197099685668945
			],
			"min":[
				-7.172430038452148,
				-4.014070987701416,
				-9.134360313415527
			],
			"type":"VEC3"
		},
		{
			"bufferView":1,
			"componentType":5126,
			"count":489,
			"type":"VEC3"
		},
		{
			"bufferView":2,
			"componentType":5126,
			"count":489,
			"type":"VEC2"
		},
		{
			"bufferView":3,
			"componentType":5121,
			"count":489,
			"type":"VEC4"
		},
		{
			"bufferView":4,
			"componentType":5126,
			"count":489,
			"type":"VEC4"
		},
		{
			"bufferView":5,
			"componentType":5123,
			"count":1176,
			"type":"SCALAR"
		},
		{
			"bufferView":6,
			"componentType":5126,
			"count":6,
			"type":"MAT4"
		},
		{
			"bufferView":7,
			"componentType":5126,
			"count":489,
			"max":[
				7.172430038452148,
				2.952899932861328,
				11.197099685668945
			],
			"min":[
				-7.172430038452148,
				-4.014070987701416,
				-9.134360313415527
			],
			"type":"VEC3"
		},
		{
			"bufferView":8,
			"componentType":5126,
			"count":489,
			"type":"VEC3"
		},
		{
			"bufferView":9,
			"componentType":5126,
			"count":489,
			"type":"VEC2"
		},
		{
			"bufferView":10,
			"componentType":5121,
			"count":489,
			"type":"VEC4"
		},
		{
			"bufferView":11,
			"componentType":5126,
			"count":489,
			"type":"VEC4"
		},
		{
			"bufferView":12,
			"componentType":5126,
			"count":252,
			"max":[
				3.1999199390411377,
				5.078390121459961,
				5.227673053741455
			],
			"min":[
				-3.1999199390411377,
				-3.0262398719787598,
				-3.0019969940185547
			],
			"type":"VEC3"
		},
		{
			"bufferView":13,
			"componentType":5126,
			"count":252,
			"type":"VEC3"
		},
		{
			"bufferView":14,
			"componentType":5126,
			"count":252,
			"type":"VEC2"
		},
		{
			"bufferView":15,
			"componentType":5121,
			"count":252,
			"type":"VEC4"
		},
		{
			"bufferView":16,
			"componentType":5126,
			"count":252,
			"type":"VEC4"
		},
		{
			"bufferView":17,
			"componentType":5123,
			"count":834,
			"type":"SCALAR"
		},
		{
			"bufferView":18,
			"componentType":5126,
			"count":168,
			"max":[
				3.0147199630737305,
				8.794440269470215,
				2.2515501976013184
			],
			"min":[
				-3.0147199630737305,
				2.1396121978759766,
				-4.866779804229736
			],
			"type":"VEC3"
		},
		{
			"bufferView":19,
			"componentType":5126,
			"count":168,
			"type":"VEC3"
		},
		{
			"bufferView":20,
			"componentType":5126,
			"count":168,
			"type":"VEC2"
		},
		{
			"bufferView":21,
			"componentType":5121,
			"count":168,
			"type":"VEC4"
		},
		{
			"bufferView":22,
			"componentType":5126,
			"count":168,
			"type":"VEC4"
		},
		{
			"bufferView":23,
			"componentType":5123,
			"count":492,
			"type":"SCALAR"
		},
		{
			"bufferView":24,
			"componentType":5126,
			"count":15,
			"max":[
				1.5574699640274048,
				6.199510097503662,
				0.9980701208114624
			],
			"min":[
				-1.5574699640274048,
				2.196619987487793,
				-0.00866997241973877
			],
			"type":"VEC3"
		},
		{
			"bufferView":25,
			"componentType":5126,
			"count":15,
			"type":"VEC3"
		},
		{
			"bufferView":26,
			"componentType":5126,
			"count":15,
			"type":"VEC2"
		},
		{
			"bufferView":27,
			"componentType":5121,
			"count":15,
			"type":"VEC4"
		},
		{
			"bufferView":28,
			"componentType":5126,
			"count":15,
			"type":"VEC4"
		},
		{
			"bufferView":29,
			"componentType":5123,
			"count":51,
			"type":"SCALAR"
		},
		{
			"bufferView":30,
			"componentType":5126,
			"count":96,
			"max":[
				6.497432708740234,
				-1.1083098649978638,
				6.441030025482178
			],
			"min":[
				-6.512927055358887,
				-4.247610092163086,
				3.301729679107666
			],
			"type":"VEC3"
		},
		{
			"bufferView":31,
			"componentType":5126,
			"count":96,
			"type":"VEC3"
		},
		{
			"bufferView":32,
			"componentType":5126,
			"count":96,
			"type":"VEC2"
		},
		{
			"bufferView":33,
			"componentType":5121,
			"count":96,
			"type":"VEC4"
		},
		{
			"bufferView":34,
			"componentType":5126,
			"count":96,
			"type":"VEC4"
		},
		{
			"bufferView":35,
			"componentType":5123,
			"count":168,
			"type":"SCALAR"
		},
		{
			"bufferView":36,
			"componentType":5126,
			"count":96,
			"max":[
				7.319246292114258,
				-0.13406991958618164,
				-2.733639717102051
			],
			"min":[
				-7.322513580322266,
				-4.2051100730896,
				-6.804679870605469
			],
			"type":"VEC3"
		},
		{
			"bufferView":37,
			"componentType":5126,
			"count":96,
			"type":"VEC3"
		},
		{
			"bufferView":38,
			"componentType":5126,
			"count":96,
			"type":"VEC2"
		},
		{
			"bufferView":39,
			"componentType":5121,
			"count":96,
			"type":"VEC4"
		},
		{
			"bufferView":40,
			"componentType":5126,
			"count":96,
			"type":"VEC4"
		}
	],
	"bufferViews":[
		{
			"buffer":0,
			"byteLength":5868,
			"byteOffset":0,
			"target":34962
		},
		{
			"buffer":0,
			"byteLength":5868,
			"byteOffset":5868,
			"target":34962
		},
		{
			"buffer":0,
			"byteLength":3912,
			"byteOffset":11736,
			"target":34962
		},
		{
			"buffer":0,
			"byteLength":1956,
			"byteOffset":15648,
			"target":34962
		},
		{
			"buffer":0,
			"byteLength":7824,
			"byteOffset":17604,
			"target":34962
		},
		{
			"buffer":0,
			"byteLength":2352,
			"byteOffset":25428,
			"target":34963
		},
		{
			"buffer":0,
			"byteLength":384,
			"byteOffset":27780
		},
		{
			"buffer":0,
			"byteLength":5868,
			"byteOffset":28164,
			"target":34962
		},
		{
			"buffer":0,
			"byteLength":5868,
			"byteOffset":34032,
			"target":34962
		},
		{
			"buffer":0,
			"byteLength":3912,
			"byteOffset":39900,
			"target":34962
		},
		{
			"buffer":0,
			"byteLength":1956,
			"byteOffset":43812,
			"target":34962
		},
		{
			"buffer":0,
			"byteLength":7824,
			"byteOffset":45768,
			"target":34962
		},
		{
			"buffer":0,
			"byteLength":3024,
			"byteOffset":53592,
			"target":34962
		},
		{
			"buffer":0,
			"byteLength":3024,
			"byteOffset":56616,
			"target":34962
		},
		{
			"buffer":0,
			"byteLength":2016,
			"byteOffset":59640,
			"target":34962
		},
		{
			"buffer":0,
			"byteLength":1008,
			"byteOffset":61656,
			"target":34962
		},
		{
			"buffer":0,
			"byteLength":4032,
			"byteOffset":62664,
			"target":34962
		},
		{
			"buffer":0,
			"byteLength":1668,
			"byteOffset":66696,
			"target":34963
		},
		{
			"buffer":0,
			"byteLength":2016,
			"byteOffset":68364,
			"target":34962
		},
		{
			"buffer":0,
			"byteLength":2016,
			"byteOffset":70380,
			"target":34962
		},
		{
			"buffer":0,
			"byteLength":1344,
			"byteOffset":72396,
			"target":34962
		},
		{
			"buffer":0,
			"byteLength":672,
			"byteOffset":73740,
			"target":34962
		},
		{
			"buffer":0,
			"byteLength":2688,
			"byteOffset":74412,
			"target":34962
		},
		{
			"buffer":0,
			"byteLength":984,
			"byteOffset":77100,
			"target":34963
		},
		{
			"buffer":0,
			"byteLength":180,
			"byteOffset":78084,
			"target":34962
		},
		{
			"buffer":0,
			"byteLength":180,
			"byteOffset":78264,
			"target":34962
		},
		{
			"buffer":0,
			"byteLength":120,
			"byteOffset":78444,
			"target":34962
		},
		{
			"buffer":0,
			"byteLength":60,
			"byteOffset":78564,
			"target":34962
		},
		{
			"buffer":0,
			"byteLength":240,
			"byteOffset":78624,
			"target":34962
		},
		{
			"buffer":0,
			"byteLength":102,
			"byteOffset":78864,
			"target":34963
		},
		{
			"buffer":0,
			"byteLength":1152,
			"byteOffset":78968,
			"target":34962
		},
		{
			"buffer":0,
			"byteLength":1152,
			"byteOffset":80120,
			"target":34962
		},
		{
			"buffer":0,
			"byteLength":768,
			"byteOffset":81272,
			"target":34962
		},
		{
			"buffer":0,
			"byteLength":384,
			"byteOffset":82040,
			"target":34962
		},
		{
			"buffer":0,
			"byteLength":1536,
			"byteOffset":82424,
			"target":34962
		},
		{
			"buffer":0,
			"byteLength":336,
			"byteOffset":83960,
			"target":34963
		},
		{
			"buffer":0,
			"byteLength":1152,
			"byteOffset":84296,
			"target":34962
		},
		{
			"buffer":0,
			"byteLength":1152,
			"byteOffset":85448,
			"target":34962
		},
		{
			"buffer":0,
			"byteLength":768,
			"byteOffset":86600,
			"target":34962
		},
		{
			"buffer":0,
			"byteLength":384,
			"byteOffset":87368,
			"target":34962
		},
		{
			"buffer":0,
			"byteLength":1536,
			"byteOffset":87752,
			"target":34962
		}
	],
	"samplers":[
		{
			"magFilter":9729,
			"minFilter":9987,
			"wrapS":33648,
			"wrapT":33648
		},
		{
			"magFilter":9729,
			"minFilter":9987,
			"wrapS":33071,
			"wrapT":33071
		},
		{
			"magFilter":9729,
			"minFilter":9987
		}
	],
	"buffers":[
		{
			"byteLength":89288,
			"uri":"COMMON.bin"
		}
	]
}
