<?xml version="1.0"?>
<COLLADA xmlns:xsi="http://www.w3.org/2001/XMLSchema-instance" xmlns:xsd="http://www.w3.org/2001/XMLSchema" version="1.4.1" xmlns="http://www.collada.org/2005/11/COLLADASchema">
  <asset>
    <created>2026-06-05T08:29:25.4981782-04:00</created>
    <modified>2026-06-05T08:29:25.4981782-04:00</modified>
  </asset>
  <library_images>
    <image id="keronpa_all.0">
      <init_from>./keronpa_all.0.png</init_from>
    </image>
    <image id="keronpa_all.1">
      <init_from>./keronpa_all.1.png</init_from>
    </image>
    <image id="keronpa_env">
      <init_from>./keronpa_env.png</init_from>
    </image>
    <image id="keronpa_spc.0">
      <init_from>./keronpa_spc.0.png</init_from>
    </image>
    <image id="keronpa_spc.1">
      <init_from>./keronpa_spc.1.png</init_from>
    </image>
  </library_images>
  <library_materials>
    <material id="mat_keronpa_mat_id" name="mat_keronpa_mat">
      <instance_effect url="#mat_keronpa_eff_id" />
    </material>
  </library_materials>
  <library_effects>
    <effect id="mat_keronpa_eff_id" name="mat_keronpa_eff">
      <profile_COMMON>
        <newparam sid="mat_keronpa_surf">
          <surface type="2D">
            <init_from>keronpa_all.0</init_from>
            <format>PNG</format>
          </surface>
        </newparam>
        <newparam sid="mat_keronpa_samp">
          <sampler2D>
            <source>mat_keronpa_surf</source>
            <wrap_s>CLAMP</wrap_s>
            <wrap_t>CLAMP</wrap_t>
            <minfilter>LINEAR_MIPMAP_NEAREST</minfilter>
            <magfilter>LINEAR</magfilter>
            <mipfilter>LINEAR</mipfilter>
          </sampler2D>
        </newparam>
        <technique sid="mat_keronpa_tech">
          <phong>
            <diffuse>
              <texture texture="mat_keronpa_samp" texcoord="uv" />
            </diffuse>
          </phong>
        </technique>
      </profile_COMMON>
    </effect>
  </library_effects>
  <library_geometries>
    <geometry id="keronpa_model_0_0_geo_id" name="keronpa_model_0_0">
      <mesh>
        <source id="keronpa_model_0_0_Position_id" name="keronpa_model_0_0_Position">
          <float_array id="keronpa_model_0_0_Position_array_id" count="474">9.29909 0 3.85181 7.3403 0 6.54761 7.11722 -3.55861 6.16369 9.29909 -2.63084 2.63084 7.11722 -6.16369 3.55861 5.33095 -2.91124 7.55416 4.53766 -5.58927 7.10669 3.85181 -8.05325 4.64955 2.57679 -7.21607 6.49219 0 -7.79022 6.29736 0 -8.71678 5.03263 5.3313 2.31223 7.48708 5.07801 -2.87126 7.2187 5.76785 2.4875 7.81914 -9.29909 0 3.85181 -7.11722 -3.55861 6.16369 -7.3403 0 6.54761 -9.29909 -2.63084 2.63084 -7.11722 -6.16369 3.55861 -5.33095 -2.91124 7.55416 -3.85181 -8.05325 4.64955 -4.53766 -5.58927 7.10669 -2.57679 -7.21607 6.49219 -5.76785 2.4875 7.81914 -5.3313 2.31223 7.48708 -5.07801 -2.87126 7.2187 -4.24864 -4.98384 2.5408 4.24863 -4.98384 2.5408 -4.73771 -0.178823 -0.428745 4.73771 -0.178823 -0.428745 5.3313 2.31223 7.48708 5.36382 2.36214 5.88919 5.07801 -2.87126 7.2187 -5.36382 2.36214 5.88919 -5.07801 -2.87126 7.2187 -5.3313 2.31223 7.48708 0 -1.74099 8.02995 1.23363 2.41037 9.16159 -1.23363 2.41037 9.16159 -2.46725 2.89483 7.5463 2.46725 2.89483 7.5463 2.49335 2.60346 8.7642 1.24723 2.9086 7.6513 3.22367 -1.16065 7.57625 5.58073 2.96835 6.34427 4.6601 2.80153 7.84656 -2.49335 2.60346 8.7642 -3.22367 -1.16065 7.57625 -1.24723 2.9086 7.6513 -5.58073 2.96835 6.34427 -4.6601 2.80153 7.84656 7.11722 3.55861 6.16369 9.29909 2.63084 2.63084 7.11722 6.16369 3.55861 9.29909 3.85181 0 7.11722 7.11722 0 5.76785 2.4875 7.81914 3.85181 4.64955 8.05325 3.3399 2.31773 9.05924 3.85181 8.05325 4.64955 3.85181 9.29909 0 0 5.03263 8.57027 0 2.11544 9.66474 3.85181 8.05325 4.64955 0 8.71678 5.03263 0 8.71678 5.03263 0 10.0653 0 10.0653 0 0 9.29909 0 -3.85181 7.11722 0 -7.11722 7.11722 3.55861 -6.16369 9.29909 2.63084 -2.63084 7.11722 6.16369 -3.55861 3.85181 0 -9.29909 3.85181 4.64955 -8.05325 3.85181 8.05325 -4.64955 0 0 -10.0653 0 5.03263 -8.71678 0 8.71678 -5.03263 7.11722 -7.11722 0 9.29909 -3.85181 0 3.85181 -9.29909 0 0 -10.0653 0 7.11722 -3.55861 -6.16369 9.29909 -2.63084 -2.63084 7.11722 -6.16369 -3.55861 3.85181 -4.64955 -8.05325 3.85181 -8.05325 -4.64955 0 -5.03263 -8.71678 0 -8.71678 -5.03263 7.11722 3.55861 6.16369 3.3399 2.31773 9.05924 0 2.11544 9.66474 2.61571 1.66261 8.94397 0 1.47406 9.3366 -7.11722 3.55861 6.16369 -9.29909 2.63084 2.63084 -7.11722 6.16369 3.55861 -7.11722 7.11722 0 -9.29909 3.85181 0 -5.76785 2.4875 7.81914 -3.3399 2.31773 9.05924 -3.85181 4.64955 8.05325 -3.85181 8.05325 4.64955 -3.85181 9.29909 0 -3.85181 8.05325 4.64955 -10.0653 0 0 -9.29909 0 -3.85181 -7.11722 3.55861 -6.16369 -7.11722 0 -7.11722 -9.29909 2.63084 -2.63084 -7.11722 6.16369 -3.55861 -3.85181 0 -9.29909 -3.85181 4.64955 -8.05325 -3.85181 8.05325 -4.64955 -9.29909 -3.85181 0 -7.11722 -7.11722 0 -3.85181 -9.29909 0 -7.11722 -3.55861 -6.16369 -9.29909 -2.63084 -2.63084 -7.11722 -6.16369 -3.55861 -3.85181 -4.64955 -8.05325 -3.85181 -8.05325 -4.64955 -7.11722 3.55861 6.16369 -3.3399 2.31773 9.05924 -2.61571 1.66261 8.94397 0 1.47406 9.3366 2.61571 1.66261 8.94397 -2.61571 1.66261 8.94397 -2.95268 -3.25314 1.71116 0 -3.58981 4.42177 -1.29239 -1.98828 0.658978 1.49449 -6.60343 5.33188 3.32019 -5.36806 3.92358 2.95268 -3.25314 1.71116 1.29239 -1.98828 0.658978 -3.32019 -5.36806 3.92358 -1.49449 -6.60343 5.33188 -0.108496 -7.15116 5.0138 1.01371 -7.17653 6.13259 1.91593 -3.2022 7.08264 2.68508 -7.05699 6.13601 3.40083 -6.39194 5.02306 0.108496 -7.15116 5.0138 -1.91593 -3.2022 7.08264 -1.01371 -7.17653 6.13259 -2.68508 -6.76108 6.13601 -3.40083 -6.39194 5.02306 4.31512 -5.28781 6.80048 2.5453 -6.7791 6.35486 0 -7.35501 6.10744 -4.31512 -5.28781 6.80048 -2.5453 -6.7791 6.35483 2.5453 -6.7791 6.35486 0 -7.35501 6.10744 -2.5453 -6.7791 6.35483 4.31512 -5.28781 6.80048 -4.31512 -5.28781 6.80048</float_array>
          <technique_common>
            <accessor source="#keronpa_model_0_0_Position_array_id" count="158" stride="3">
              <param name="X" type="float" />
              <param name="Y" type="float" />
              <param name="Z" type="float" />
            </accessor>
          </technique_common>
        </source>
        <source id="keronpa_model_0_0_Normal_id" name="keronpa_model_0_0_Normal">
          <float_array id="keronpa_model_0_0_Normal_array_id" count="474">0.903662 0 0.428246 0.705038 -0.018283 0.708933 0.726226 -0.291845 0.622432 0.917421 -0.28137 0.28137 0.726021 -0.591468 0.350798 0.0481441 -0.0947575 0.994336 0.193477 -0.403326 0.894369 0.38264 -0.814569 0.435964 -0.0269153 -0.289248 0.956876 0 -0.312335 0.949972 0 -0.912736 0.408551 -0.21659 -0.532165 0.818467 -0.7325 0.0677342 0.677389 0.410376 -0.0112259 0.911847 -0.903662 0 0.428246 -0.726226 -0.291845 0.622432 -0.705038 -0.018283 0.708933 -0.917421 -0.28137 0.28137 -0.726021 -0.591468 0.350798 -0.0481431 -0.0947573 0.994336 -0.38264 -0.814569 0.435964 -0.193474 -0.403324 0.89437 0.0269213 -0.289237 0.956879 -0.410376 -0.0112257 0.911847 0.216591 -0.532165 0.818467 0.732502 0.0677349 0.677387 0.578695 0.713561 0.394896 -0.578695 0.713561 0.394895 0.815204 -0.0692221 0.575022 -0.815204 -0.069222 0.575022 -0.643612 -0.764458 -0.0369767 -0.420902 -0.90706 -0.00917481 -0.988212 0.145639 0.047178 0.420902 -0.90706 -0.00917487 0.988212 0.145639 0.0471778 0.643612 -0.764458 -0.0369767 0 -0.756562 0.653923 0.444941 -0.356203 0.821673 -0.444941 -0.356203 0.821673 -0.752805 -0.450705 -0.47974 0.752805 -0.450704 -0.47974 -0.16424 -0.325717 0.931093 -0.869267 -0.417314 -0.264998 0.176492 -0.670134 0.720951 0.629466 -0.529118 -0.56904 0.640194 -0.280872 0.715027 0.16424 -0.325717 0.931093 -0.176492 -0.670134 0.720951 0.869267 -0.417314 -0.264998 -0.629466 -0.529118 -0.56904 -0.640193 -0.280872 0.715027 0.71635 0.362448 0.596216 0.917421 0.28137 0.28137 0.741908 0.585389 0.326943 0.909328 0.41608 0 0.708039 0.706173 0 0.410376 -0.0112259 0.911847 0.381485 0.486317 0.786108 0.299159 -0.0481554 0.952987 0.378177 0.755297 0.535265 0.383526 0.92353 0 0 0.54019 0.841543 0 -0.0318377 0.999493 0.378177 0.755297 0.535265 0 0.860896 0.508782 0 0.860896 0.508782 0 1 0 1 0 0 0.909328 0 -0.41608 0.708039 0 -0.706174 0.741908 0.326943 -0.585389 0.917421 0.28137 -0.28137 0.741908 0.585389 -0.326943 0.383526 0 -0.92353 0.383526 0.461765 -0.799801 0.383526 0.799801 -0.461765 0 0 -1 0 0.5 -0.866025 0 0.866025 -0.5 0.708039 -0.706173 0 0.909328 -0.41608 0 0.383526 -0.92353 0 0 -1 0 0.741908 -0.326943 -0.585389 0.917421 -0.28137 -0.28137 0.741908 -0.585389 -0.326943 0.383526 -0.461765 -0.799801 0.383526 -0.799801 -0.461765 0 -0.5 -0.866025 0 -0.866025 -0.5 0.71635 0.362448 0.596216 0.299159 -0.0481554 0.952987 0 -0.0318377 0.999493 0.291302 -0.626412 0.723015 0 -0.412029 0.911171 -0.71635 0.362448 0.596216 -0.917421 0.28137 0.28137 -0.741908 0.585389 0.326943 -0.708039 0.706173 0 -0.909328 0.41608 0 -0.410376 -0.0112257 0.911847 -0.299159 -0.0481551 0.952987 -0.381485 0.486317 0.786108 -0.378177 0.755297 0.535265 -0.383526 0.92353 0 -0.378177 0.755297 0.535265 -1 0 0 -0.909328 0 -0.41608 -0.741908 0.326943 -0.585389 -0.708039 0 -0.706174 -0.917421 0.28137 -0.28137 -0.741908 0.585389 -0.326943 -0.383526 0 -0.92353 -0.383526 0.461765 -0.799801 -0.383526 0.799801 -0.461765 -0.909328 -0.41608 0 -0.708039 -0.706173 0 -0.383526 -0.92353 0 -0.741908 -0.326943 -0.585389 -0.917421 -0.28137 -0.28137 -0.741908 -0.585389 -0.326943 -0.383526 -0.461765 -0.799801 -0.383526 -0.799801 -0.461765 -0.71635 0.362448 0.596216 -0.299159 -0.0481551 0.952987 -0.291302 -0.626411 0.723016 0 -0.978222 -0.207563 0.13202 -0.985466 -0.106902 -0.13202 -0.985466 -0.106902 -0.393974 0.755794 0.523031 0 0.705318 0.708891 -0.168651 0.884743 0.434495 0.180349 0.365247 0.913274 0.409635 0.563949 0.71705 0.393974 0.755794 0.52303 0.168651 0.884744 0.434495 -0.409635 0.563949 0.71705 -0.180349 0.365247 0.913274 -0.843865 0.513727 -0.154843 -0.377139 -0.133468 0.916489 0.0244765 0.205743 0.9783 0.482304 -0.116962 0.86816 0.763198 0.561618 -0.319553 0.843865 0.513727 -0.154843 -0.0581361 0.203507 0.977346 0.356745 -0.139816 0.92368 -0.504334 -0.118515 0.855337 -0.761309 0.562564 -0.322381 -0.64046 0.224988 0.734297 -0.330938 0.334522 0.882369 0 0.346279 0.938132 0.640469 0.224998 0.734286 0.330947 0.334546 0.882356 -0.461042 0.864329 0.200937 -1.12693E-06 0.911455 0.411399 0.461041 0.864329 0.200939 -0.835962 0.546315 0.0520343 0.835962 0.546315 0.052034</float_array>
          <technique_common>
            <accessor source="#keronpa_model_0_0_Normal_array_id" count="158" stride="3">
              <param name="X" type="float" />
              <param name="Y" type="float" />
              <param name="Z" type="float" />
            </accessor>
          </technique_common>
        </source>
        <source id="keronpa_model_0_0_TexCoord0_id" name="keronpa_model_0_0_TexCoord0">
          <float_array id="keronpa_model_0_0_TexCoord0_array_id" count="316">0.0476127 0.956405 0.0476127 0.956405 0.0476127 0.956405 0.0476127 0.956405 0.0476127 0.956405 0.0476127 0.956405 0.0476127 0.956405 0.0476127 0.956405 0.0476127 0.956405 0.0476127 0.956405 0.0476127 0.956405 0.0476127 0.956405 0.0476127 0.956405 0.0476127 0.956405 0.0476127 0.956405 0.0476127 0.956405 0.0476127 0.956405 0.0476127 0.956405 0.0476127 0.956405 0.0476127 0.956405 0.0476127 0.956405 0.0476127 0.956405 0.0476127 0.956405 0.0476127 0.956405 0.0476127 0.956405 0.0476127 0.956405 0.162803 0.0599618 0.433935 0.0599618 0.171908 0.175163 0.42483 0.175163 0.582209 0.343772 0.439441 0.345184 0.563107 0.136536 0.157297 0.345184 0.033631 0.136536 0.0145291 0.343772 0.67633 0.0143259 0.67633 0.208792 0.67633 0.208792 0.67633 0.23184 0.67633 0.23184 0.67633 0.223389 0.67633 0.24106 0.67633 0.0143259 0.67633 0.204182 0.67633 0.202646 0.67633 0.223389 0.67633 0.0143259 0.67633 0.24106 0.67633 0.204182 0.67633 0.202646 0.0476127 0.956405 0.0476127 0.956405 0.0476127 0.956405 0.0476127 0.956405 0.0476127 0.956405 1.26385 0.455962 0.758656 0.738939 0.620035 0.415431 0.0476127 0.956405 0.0476127 0.956405 -0.114256 0.742986 -0.117214 0.419168 0.761962 1.10079 -0.110947 1.10518 0.0476127 0.956405 0.0476127 0.956405 0.0476127 0.956405 0.0476127 0.956405 0.0476127 0.956405 0.0476127 0.956405 0.0476127 0.956405 0.0476127 0.956405 0.0476127 0.956405 0.0476127 0.956405 0.0476127 0.956405 0.0476127 0.956405 0.0476127 0.956405 0.0476127 0.956405 0.0476127 0.956405 0.0476127 0.956405 0.0476127 0.956405 0.0476127 0.956405 0.0476127 0.956405 0.0476127 0.956405 0.0476127 0.956405 0.0476127 0.956405 0.0476127 0.956405 0.0476127 0.956405 0.0476127 0.956405 1.62431 0.768244 0.0476127 0.956405 0.0476127 0.956405 0.0476127 0.956405 0.0476127 0.956405 0.0476127 0.956405 0.0476127 0.956405 0.0476127 0.956405 0.0476127 0.956405 0.0476127 0.956405 1.26385 0.455962 0.620035 0.415431 0.758656 0.738939 0.0476127 0.956405 0.0476127 0.956405 0.761962 1.10079 0.0476127 0.956405 0.0476127 0.956405 0.0476127 0.956405 0.0476127 0.956405 0.0476127 0.956405 0.0476127 0.956405 0.0476127 0.956405 0.0476127 0.956405 0.0476127 0.956405 0.0476127 0.956405 0.0476127 0.956405 0.0476127 0.956405 0.0476127 0.956405 0.0476127 0.956405 0.0476127 0.956405 0.0476127 0.956405 0.0476127 0.956405 1.62431 0.768244 0.0476127 0.956405 0.0476127 0.956405 0.298369 0.384276 0.368189 0.375989 0.22855 0.375989 0.773178 0.176677 0.8765 0.113512 0.832261 0.241 0.933899 0.0108497 0.994682 0.0786314 0.979822 0.176677 0.920739 0.241 0.758318 0.0786314 0.819101 0.0108497 0.67633 0.17343 0.67633 0.166152 0.67633 0.0229287 0.67633 0.169474 0.67633 0.178606 0.67633 0.17343 0.67633 0.0229287 0.67633 0.166152 0.67633 0.169474 0.67633 0.178606 0.0476127 0.956405 0.0476127 0.956405 0.0476127 0.956405 0.0476127 0.956405 0.0476127 0.956405 0.492747 0.0205166 0.298369 0.00422972 0.103991 0.0205166 0.542747 0.0626901 0.0539908 0.0626901</float_array>
          <technique_common>
            <accessor source="#keronpa_model_0_0_TexCoord0_array_id" count="158" stride="2">
              <param name="S" type="float" />
              <param name="T" type="float" />
            </accessor>
          </technique_common>
        </source>
        <source id="keronpa_model_0_0_Color_id" name="keronpa_model_0_0_Color">
          <float_array id="keronpa_model_0_0_Color_array_id" count="632">0.7215686 0.7215686 0.7215686 1 0.7137255 0.7137255 0.7137255 1 0.5921569 0.5921569 0.5921569 1 0.6 0.6 0.6 1 0.4901961 0.4901961 0.4901961 1 0.6352941 0.6352941 0.6352941 1 0.5215687 0.5215687 0.5215687 1 0.4117647 0.4117647 0.4117647 1 0.5450981 0.5450981 0.5450981 1 0.5215687 0.5215687 0.5215687 1 0.4 0.4 0.4 1 0.3921569 0.3921569 0.3921569 1 0.4039216 0.4039216 0.4039216 1 0.7411765 0.7411765 0.7411765 1 0.7215686 0.7215686 0.7215686 1 0.5921569 0.5921569 0.5921569 1 0.7137255 0.7137255 0.7137255 1 0.6 0.6 0.6 1 0.4941177 0.4941177 0.4941177 1 0.6352941 0.6352941 0.6352941 1 0.4156863 0.4156863 0.4156863 1 0.5215687 0.5215687 0.5215687 1 0.5450981 0.5450981 0.5450981 1 0.7411765 0.7411765 0.7411765 1 0.3882353 0.3882353 0.3882353 1 0.4 0.4 0.4 1 1 0.8235295 0.8235295 1 1 0.8431373 0.8431373 1 0.9921569 0.8117648 0.8117648 1 0.9568628 0.7764707 0.7764707 1 0.9529412 0.7725491 0.7725491 1 0.8431373 0.6627451 0.6627451 1 0.9647059 0.7843138 0.7843138 1 0.8431373 0.6627451 0.6627451 1 0.9607844 0.7803922 0.7803922 1 0.9450981 0.7686275 0.7686275 1 0.8000001 0.8000001 0.8000001 1 0.8000001 0.8000001 0.8000001 1 0.8000001 0.8000001 0.8000001 1 0.8000001 0.8000001 0.8000001 1 0.8000001 0.8000001 0.8000001 1 0.8000001 0.8000001 0.8000001 1 0.8000001 0.8000001 0.8000001 1 0.8000001 0.8000001 0.8000001 1 0.8000001 0.8000001 0.8000001 1 0.8000001 0.8000001 0.8000001 1 0.8000001 0.8000001 0.8000001 1 0.8000001 0.8000001 0.8000001 1 0.8000001 0.8000001 0.8000001 1 0.8000001 0.8000001 0.8000001 1 0.8000001 0.8000001 0.8000001 1 0.8666667 0.8666667 0.8666667 1 0.8352942 0.8352942 0.8352942 1 0.9529412 0.9529412 0.9529412 1 0.8784314 0.8784314 0.8784314 1 0.9960785 0.9960785 0.9960785 1 0.7411765 0.7411765 0.7411765 1 0.909804 0.909804 0.909804 1 0.7254902 0.7254902 0.7254902 1 1 1 1 1 1 1 1 1 0.9254903 0.9254903 0.9254903 1 0.7294118 0.7294118 0.7294118 1 1 1 1 1 1 1 1 1 1 1 1 1 1 1 1 1 0.7215686 0.7215686 0.7215686 1 0.7215686 0.7215686 0.7215686 1 0.7215686 0.7215686 0.7215686 1 0.8588236 0.8588236 0.8588236 1 0.8274511 0.8274511 0.8274511 1 0.9529412 0.9529412 0.9529412 1 0.7215686 0.7215686 0.7215686 1 0.9019608 0.9019608 0.9019608 1 1 1 1 1 0.7215686 0.7215686 0.7215686 1 0.9176471 0.9176471 0.9176471 1 1 1 1 1 0.4196079 0.4196079 0.4196079 1 0.5450981 0.5450981 0.5450981 1 0.3372549 0.3372549 0.3372549 1 0.3254902 0.3254902 0.3254902 1 0.5803922 0.5803922 0.5803922 1 0.6 0.6 0.6 1 0.4509804 0.4509804 0.4509804 1 0.5137255 0.5137255 0.5137255 1 0.3764706 0.3764706 0.3764706 1 0.4941177 0.4941177 0.4941177 1 0.3529412 0.3529412 0.3529412 1 0.8666667 0.8666667 0.8666667 1 0.7254902 0.7254902 0.7254902 1 0.7294118 0.7294118 0.7294118 1 0.3764706 0.3764706 0.3764706 1 0.4588236 0.4588236 0.4588236 1 0.8666667 0.8666667 0.8666667 1 0.8352942 0.8352942 0.8352942 1 0.9529412 0.9529412 0.9529412 1 0.9960785 0.9960785 0.9960785 1 0.8784314 0.8784314 0.8784314 1 0.7411765 0.7411765 0.7411765 1 0.7254902 0.7254902 0.7254902 1 0.909804 0.909804 0.909804 1 1 1 1 1 1 1 1 1 1 1 1 1 0.7176471 0.7176471 0.7176471 1 0.7215686 0.7215686 0.7215686 1 0.8588236 0.8588236 0.8588236 1 0.7254902 0.7254902 0.7254902 1 0.8313726 0.8313726 0.8313726 1 0.9529412 0.9529412 0.9529412 1 0.7215686 0.7215686 0.7215686 1 0.9058824 0.9058824 0.9058824 1 1 1 1 1 0.5411765 0.5411765 0.5411765 1 0.427451 0.427451 0.427451 1 0.3490196 0.3490196 0.3490196 1 0.5764706 0.5764706 0.5764706 1 0.6 0.6 0.6 1 0.454902 0.454902 0.454902 1 0.5137255 0.5137255 0.5137255 1 0.3882353 0.3882353 0.3882353 1 0.8666667 0.8666667 0.8666667 1 0.7254902 0.7254902 0.7254902 1 0.3764706 0.3764706 0.3764706 1 1 0.8392158 0.8392158 1 0.937255 0.7568628 0.7568628 1 0.937255 0.7568628 0.7568628 1 1 1 1 1 1 1 1 1 1 1 1 1 1 1 1 1 1 1 1 1 1 1 1 1 1 1 1 1 1 1 1 1 1 1 1 1 0.8000001 0.8000001 0.8000001 1 0.8000001 0.8000001 0.8000001 1 0.8000001 0.8000001 0.8000001 1 0.8000001 0.8000001 0.8000001 1 0.8000001 0.8000001 0.8000001 1 0.8000001 0.8000001 0.8000001 1 0.8000001 0.8000001 0.8000001 1 0.8000001 0.8000001 0.8000001 1 0.8000001 0.8000001 0.8000001 1 0.8000001 0.8000001 0.8000001 1 0.4745098 0.4745098 0.4745098 1 0.5333334 0.5333334 0.5333334 1 0.5607843 0.5607843 0.5607843 1 0.482353 0.482353 0.482353 1 0.5333334 0.5333334 0.5333334 1 1 0.9137256 0.9137256 1 1 0.9411765 0.9411765 1 1 0.909804 0.909804 1 1 0.854902 0.854902 1 1 0.8627452 0.8627452 1</float_array>
          <technique_common>
            <accessor source="#keronpa_model_0_0_Color_array_id" count="158" stride="4">
              <param name="R" type="float" />
              <param name="G" type="float" />
              <param name="B" type="float" />
              <param name="A" type="float" />
            </accessor>
          </technique_common>
        </source>
        <vertices id="keronpa_model_0_0_vtx_id">
          <input semantic="POSITION" source="#keronpa_model_0_0_Position_id" />
          <input semantic="NORMAL" source="#keronpa_model_0_0_Normal_id" />
        </vertices>
        <triangles material="Mdl_0_Mtl_mat_keronpa" count="228">
          <input semantic="VERTEX" source="#keronpa_model_0_0_vtx_id" offset="0" />
          <input semantic="TEXCOORD" source="#keronpa_model_0_0_TexCoord0_id" offset="0" set="0" />
          <input semantic="COLOR" source="#keronpa_model_0_0_Color_id" offset="0" />
          <p>61 62 58 61 101 62 61 58 57 61 102 101 61 57 63 61 105 102 61 63 64 61 64 105 58 56 57 101 102 100 63 57 90 90 57 56 105 123 102 102 123 100 30 31 32 30 127 31 32 31 29 32 29 27 32 27 156 127 126 31 29 28 27 29 31 28 156 27 153 126 33 31 126 128 33 31 33 28 27 154 153 27 28 26 27 26 154 128 35 33 28 34 26 28 33 34 33 35 34 154 26 155 34 157 26 26 157 155 37 38 36 37 36 40 38 39 36 36 39 40 41 42 43 41 43 45 42 44 43 43 44 45 46 47 48 46 50 47 48 47 49 49 47 50 94 93 92 94 92 125 93 91 92 93 11 91 125 92 124 125 124 24 11 13 91 11 12 13 124 23 24 12 5 13 12 148 5 23 25 24 23 19 25 23 16 19 23 95 16 13 5 1 13 1 51 148 6 5 148 149 6 25 19 151 95 14 16 95 96 14 95 97 96 95 103 97 1 0 51 1 5 2 1 2 0 5 6 2 149 8 6 149 150 8 19 21 151 19 16 15 19 15 21 16 14 15 96 97 99 96 106 14 96 99 106 103 98 97 103 104 98 103 65 104 97 98 99 51 0 52 51 52 53 51 53 59 2 6 4 2 3 0 2 4 3 150 9 8 150 22 9 150 152 22 152 151 21 152 21 22 15 14 17 15 18 21 15 17 18 14 106 17 65 66 104 65 59 60 65 60 66 98 111 99 98 104 114 98 114 111 52 54 53 52 0 67 52 67 54 0 3 67 6 7 4 6 8 7 8 9 7 22 21 20 22 20 9 21 18 20 106 115 17 106 99 110 106 119 115 106 110 107 106 107 119 99 111 110 17 115 18 59 55 60 59 53 55 53 54 55 66 78 104 66 60 78 104 78 114 3 80 67 3 4 80 7 9 10 7 79 4 7 10 81 7 81 79 4 79 80 9 20 10 107 118 119 107 110 108 107 109 118 107 108 109 110 111 108 115 116 18 115 119 120 115 120 116 119 118 120 18 116 20 54 72 55 54 67 71 54 71 72 60 75 78 60 55 75 55 72 75 114 113 111 114 78 77 114 77 113 78 75 77 111 113 108 81 87 79 81 10 82 81 89 87 81 82 89 80 84 67 80 79 85 80 85 84 79 87 85 109 112 118 109 108 112 108 113 112 120 122 116 120 118 121 120 121 122 118 112 121 20 117 10 20 116 117 117 82 10 117 122 89 117 116 122 117 89 82 71 70 72 71 67 68 71 68 70 67 84 68 75 74 77 75 72 74 72 70 74 87 86 85 87 89 88 87 88 86 122 121 88 122 88 89 113 76 112 113 77 76 88 76 86 88 121 76 121 112 76 77 74 76 84 83 68 84 85 83 85 86 83 70 73 74 70 68 69 70 69 73 73 76 74 73 83 86 73 69 83 73 86 76 83 69 68 129 130 131 129 136 130 131 130 135 136 137 130 135 130 134 137 132 130 134 130 133 133 130 132 138 139 140 138 140 142 139 141 140 140 141 142 143 144 145 143 147 144 145 144 146 146 144 147</p>
        </triangles>
      </mesh>
    </geometry>
  </library_geometries>
  <library_controllers>
    <controller id="keronpa_model_0_0_ctrl_id" name="keronpa_model_0_0_ctrl">
      <skin source="#keronpa_model_0_0_geo_id">
        <bind_shape_matrix>1 0 0 0 0 1 0 0 0 0 1 0 0 0 0 1</bind_shape_matrix>
        <source id="keronpa_model_0_0_ctrl_names_id" name="keronpa_model_0_0_ctrl_names">
          <Name_array id="keronpa_model_0_0_ctrl_names_array_id" count="3">keronpa_all_root skl_root mouth_1</Name_array>
          <technique_common>
            <accessor source="#keronpa_model_0_0_ctrl_names_array_id" count="3" stride="1">
              <param name="JOINT" type="Name" />
            </accessor>
          </technique_common>
        </source>
        <source id="keronpa_model_0_0_ctrl_poses_id" name="keronpa_model_0_0_ctrl_poses">
          <float_array id="keronpa_model_0_0_ctrl_poses_array_id" count="48">1 0 0 0 0 1 0 0 0 0 1 0 0 0 0 1 -3.61999E-06 1 2.184084E-19 0 3.61999E-06 1.310433E-11 1 0 1 3.61999E-06 -3.61999E-06 0 0 0 0 1 5.099959E-06 -0.6427891 0.7660433 3.05765 4.461787E-07 -0.7660433 -0.6427891 -1.993466 1 3.61999E-06 -3.61999E-06 9.9554E-13 0 0 0 1</float_array>
          <technique_common>
            <accessor source="#keronpa_model_0_0_ctrl_poses_array_id" count="3" stride="16">
              <param name="TRANSFORM" type="float4x4" />
            </accessor>
          </technique_common>
        </source>
        <source id="keronpa_model_0_0_ctrl_weights_id" name="keronpa_model_0_0_ctrl_weights">
          <float_array id="keronpa_model_0_0_ctrl_weights_array_id" count="2">1 0.5</float_array>
          <technique_common>
            <accessor source="#keronpa_model_0_0_ctrl_weights_array_id" count="2" stride="1">
              <param name="WEIGHT" type="float" />
            </accessor>
          </technique_common>
        </source>
        <joints>
          <input semantic="JOINT" source="#keronpa_model_0_0_ctrl_names_id" />
          <input semantic="INV_BIND_MATRIX" source="#keronpa_model_0_0_ctrl_poses_id" />
        </joints>
        <vertex_weights count="158">
          <input semantic="JOINT" source="#keronpa_model_0_0_ctrl_names_id" offset="0" />
          <input semantic="WEIGHT" source="#keronpa_model_0_0_ctrl_weights_id" offset="1" />
          <vcount>1 1 2 1 1 1 1 1 1 1 1 1 1 1 1 2 1 1 1 1 1 1 1 1 1 1 1 1 1 1 1 1 1 1 1 1 1 1 1 1 1 1 1 1 1 1 1 1 1 1 1 1 1 1 1 1 1 1 1 1 1 1 1 1 1 1 1 1 1 1 1 1 1 1 1 1 1 1 1 1 1 1 1 1 1 1 1 1 1 1 1 1 1 1 1 1 1 1 1 1 1 1 1 1 1 1 1 1 1 1 1 1 1 1 1 1 1 1 1 1 1 1 1 1 1 1 1 1 1 1 1 1 1 1 1 1 1 1 1 1 1 1 1 1 1 1 1 1 1 1 1 1 1 1 1 1 1 1</vcount>
          <v>1 0 1 0 1 1 2 1 1 0 1 0 2 0 2 0 1 0 2 0 2 0 1 0 1 0 2 0 1 0 1 0 1 1 2 1 1 0 1 0 1 0 2 0 1 0 2 0 2 0 1 0 1 0 2 0 2 0 2 0 1 0 1 0 1 0 1 0 2 0 1 0 2 0 1 0 1 0 1 0 1 0 1 0 1 0 1 0 1 0 1 0 1 0 1 0 1 0 1 0 1 0 1 0 1 0 1 0 1 0 1 0 1 0 1 0 1 0 1 0 1 0 1 0 1 0 1 0 1 0 1 0 1 0 1 0 1 0 1 0 1 0 1 0 1 0 1 0 1 0 1 0 1 0 1 0 1 0 1 0 1 0 1 0 1 0 1 0 1 0 1 0 1 0 1 0 1 0 1 0 1 0 1 0 1 0 1 0 1 0 1 0 1 0 1 0 1 0 1 0 1 0 1 0 1 0 1 0 1 0 1 0 1 0 1 0 1 0 1 0 1 0 1 0 1 0 1 0 1 0 1 0 1 0 1 0 1 0 1 0 1 0 1 0 1 0 1 0 1 0 1 0 1 0 1 0 1 0 1 0 1 0 2 0 2 0 2 0 2 0 2 0 2 0 2 0 2 0 2 0 2 0 2 0 2 0 2 0 2 0 2 0 2 0 2 0 2 0 2 0 2 0 2 0 2 0 2 0 2 0 2 0 2 0 2 0 2 0 2 0</v>
        </vertex_weights>
      </skin>
    </controller>
  </library_controllers>
  <library_visual_scenes>
    <visual_scene id="keronpa_00_id" name="keronpa_00">
      <node id="keronpa_all_root_bone_id" name="keronpa_all_root" sid="keronpa_all_root" type="JOINT">
        <translate sid="translate">0 0 0</translate>
        <rotate sid="rotateZ">0 0 1 0</rotate>
        <rotate sid="rotateY">0 1 0 0</rotate>
        <rotate sid="rotateX">1 0 0 0</rotate>
        <scale sid="scale">1 1 1</scale>
        <node id="skl_root_bone_id" name="skl_root" sid="skl_root" type="JOINT">
          <translate sid="translate">0 0 0</translate>
          <rotate sid="rotateZ">0 0 1 90.00021</rotate>
          <rotate sid="rotateY">0 1 0 0</rotate>
          <rotate sid="rotateX">1 0 0 90.00021</rotate>
          <scale sid="scale">1 1 1</scale>
          <node id="mouth_1_bone_id" name="mouth_1" sid="mouth_1" type="JOINT">
            <translate sid="translate">0.438343 -3.62367 0</translate>
            <rotate sid="rotateZ">0 0 1 130.0001</rotate>
            <rotate sid="rotateY">0 1 0 0</rotate>
            <rotate sid="rotateX">1 0 0 0</rotate>
            <scale sid="scale">1 1 1</scale>
          </node>
        </node>
      </node>
      <node id="keronpa_model_0_0_node_id" name="keronpa_model_0_0_node" type="NODE">
        <matrix>1 0 0 0 0 1 0 0 0 0 1 0 0 0 0 1</matrix>
        <instance_controller url="#keronpa_model_0_0_ctrl_id">
          <skeleton>#keronpa_all_root_bone_id</skeleton>
          <bind_material>
            <technique_common>
              <instance_material symbol="Mdl_0_Mtl_mat_keronpa" target="#mat_keronpa_mat_id" />
            </technique_common>
          </bind_material>
        </instance_controller>
      </node>
    </visual_scene>
  </library_visual_scenes>
  <scene>
    <instance_visual_scene url="#keronpa_00_id" />
  </scene>
</COLLADA>